<svg width="200" height="80" viewBox="0 0 200 80" fill="none" xmlns="http://www.w3.org/2000/svg">
<path d="M1.07634 41.7877C1.16684 41.4572 1.25708 41.1594 1.34437 40.8971C1.82022 39.4671 1.85787 35.8426 1.89313 32.4485C1.92169 29.6997 1.94868 27.1021 2.2056 25.944C2.41394 25.0049 3.22706 24.0658 4.19234 23.2366C4.31889 24.686 4.63801 26.0354 5.52113 27.0574C6.45779 28.1413 7.93116 27.7853 9.45861 27.4162C10.7336 27.1081 12.0462 26.7909 13.1159 27.2944C13.8317 27.6314 14.6133 27.9613 15.4174 28.3008C19.2679 29.9262 23.635 31.7697 23.77 35.6483C23.9189 39.9271 17.6965 41.7125 13.6522 42.7058C11.9062 43.1346 10.2489 42.3915 8.5667 41.6371C7.22114 41.0338 5.85964 40.4233 4.42405 40.3997C3.41721 40.3831 2.54804 40.9073 1.67115 41.4361C1.47382 41.5551 1.2761 41.6743 1.07634 41.7877Z" fill="url(#paint0_linear_10_1406)"/>
<path d="M3.69354 61.9858C2.42592 61.3139 1.04386 59.7952 0.48315 56.4253C-0.204136 52.2946 -0.0687044 48.4729 0.335475 45.5153C0.572071 45.426 0.809032 45.3358 1.04613 45.2455L1.04664 45.2453C4.6524 43.8718 8.2893 42.4865 11.151 44.6105C14.8955 47.3896 14.6466 54.3001 12.3434 58.3403C11.154 60.4266 8.58768 60.944 6.03015 61.4596C5.23663 61.6195 4.44396 61.7793 3.69354 61.9858Z" fill="url(#paint1_linear_10_1406)"/>
<path d="M29.605 79.1197C28.5772 79.2259 27.4833 79.2395 26.3199 79.1424C16.8254 78.3499 13.3277 70.7314 12.0705 66.0696C12.1129 66.0812 12.1549 66.0932 12.1964 66.1055C13.6273 66.5301 14.3135 67.9862 15.0025 69.4486C15.6753 70.8763 16.3509 72.31 17.7252 72.7952C18.8985 73.2094 20.0487 72.4313 21.199 71.6531C22.3489 70.8753 23.4989 70.0973 24.6722 70.5102C26.0218 70.9851 26.4114 72.4661 26.8084 73.9753C27.0206 74.7818 27.2348 75.5963 27.5988 76.2696C28.1413 77.2732 28.873 78.2011 29.605 79.1197Z" fill="url(#paint2_linear_10_1406)"/>
<path d="M57.4527 65.9539L44.9048 65.917C44.4402 65.9156 44.0317 66.217 43.8747 66.6551C43.1246 68.7479 40.5456 74.7414 34.7912 77.6231C34.3406 77.3817 33.9012 77.1464 33.4762 76.93C31.7161 76.0338 31.7443 73.8246 31.7731 71.5717C31.8003 69.445 31.8281 67.2793 30.3522 66.1424C28.654 64.8342 26.2972 65.1767 23.9685 65.5151C21.4962 65.8743 19.0557 66.229 17.4689 64.5988C14.7733 61.8294 16.2821 57.0163 17.4602 53.2583L17.5457 52.9855C17.6362 52.696 17.7272 52.4002 17.8196 52.1001L17.8202 52.0983C19.059 48.0724 20.5403 43.2587 24.4764 42.2045C27.3341 41.4392 29.7887 43.2803 32.2994 45.1636C33.6839 46.202 35.0854 47.2533 36.5811 47.8874C37.5912 48.3156 38.6555 48.5666 39.7101 48.8153C41.3503 49.2021 42.9674 49.5834 44.3219 50.6177C45.9592 51.8679 46.9593 53.5981 47.9771 55.3589C48.4262 56.1357 48.8787 56.9186 49.3909 57.6688C50.3946 59.139 51.9688 60.5524 53.5339 61.9578C55.0102 63.2833 56.4785 64.6017 57.4527 65.9539Z" fill="url(#paint3_linear_10_1406)"/>
<path d="M108.078 66.1026L63.112 65.9705C62.9021 65.6993 62.7872 65.3712 62.7907 64.9712C62.8183 61.8313 73.4628 53.1809 76.2274 51.6838C78.0143 50.7161 79.549 51.1377 81.1199 51.5693C82.5849 51.9717 84.0813 52.3828 85.8431 51.6838C87.168 51.1581 87.334 49.5671 87.5028 47.9489C87.6631 46.4122 87.826 44.851 88.9865 44.1547C91.0959 42.889 94.7703 43.4614 96.086 45.5378C96.8259 46.7055 96.1557 48.1967 95.4964 49.6633C94.8073 51.1965 94.1302 52.7029 95.0887 53.7849C96.629 55.5237 99.1374 55.9156 101.611 56.3021C104.332 56.7272 107.01 57.1457 108.314 59.3417C109.476 61.2994 109.141 63.823 108.078 66.1026Z" fill="url(#paint4_linear_10_1406)"/>
<path d="M135.514 66.1832L122.549 66.1451C122.688 65.6098 122.839 65.0714 122.99 64.5337C123.962 61.0585 124.928 57.6081 122.825 55.1776C121.162 53.2558 118.276 54.5489 115.391 55.8418C112.506 57.1349 109.62 58.4279 107.959 56.5039C106.293 54.5735 109.101 53.1255 112.126 51.565C113.995 50.6014 115.946 49.5949 116.979 48.4056C117.909 47.334 118.396 46.0364 118.891 44.7191C119.077 44.2229 119.264 43.7238 119.477 43.233C120.002 42.02 120.219 40.4509 120.434 38.8988C120.842 35.9462 121.242 33.055 123.739 32.794C125.764 32.5822 126.498 34.8157 127.268 37.1589C127.974 39.3075 128.71 41.5483 130.5 42.0806C132.863 42.7831 135.284 41.6404 137.682 40.5083C140.231 39.3053 142.754 38.1144 145.155 39.1619C149.437 41.0302 154.313 47.4714 151.62 51.2949C149.782 53.9054 146.152 53.7308 142.523 53.5562C138.893 53.3816 135.263 53.207 133.425 55.818C131.682 58.2947 133.192 61.3904 134.716 64.5145C134.988 65.0709 135.26 65.6283 135.514 66.1832Z" fill="url(#paint5_linear_10_1406)"/>
<path d="M154.853 76.1042C149.711 73.1596 148.431 68.1237 148.083 66.7576C148.053 66.6366 148.029 66.5444 148.011 66.485C150.396 65.2177 152.74 64.6276 154.735 66.083C157.054 67.7749 156.248 70.7826 155.4 73.9447C155.208 74.6611 155.014 75.3854 154.853 76.1042Z" fill="url(#paint6_linear_10_1406)"/>
<path d="M173.594 75.3051C171.258 77.0796 168.015 78.3751 163.542 78.2797C161.5 78.2362 159.727 77.955 158.187 77.5061C158.381 75.5795 159.278 73.491 160.166 71.4262C161.712 67.8279 163.227 64.3017 160.935 61.8304C158.603 59.3164 154.623 60.496 150.686 61.6625C146.667 62.8535 142.694 64.0309 140.567 61.2513C138.756 58.885 142.013 57.7001 145.762 56.3364C148.786 55.2361 152.131 54.0193 153.391 51.9716C154.427 50.2866 153.737 47.5418 153.109 45.0415C152.371 42.1089 151.719 39.5127 154.035 39.3569C157.41 39.13 159.288 42.22 161.243 45.4359C162.562 47.6062 163.916 49.8338 165.789 51.1379C166.607 51.7079 167.611 51.3865 168.633 51.059C169.181 50.8833 169.735 50.7059 170.269 50.6635C171.705 50.5493 173.321 50.0178 174.929 49.489C178.172 48.4226 181.381 47.3672 183.016 49.7681C184.536 52.0016 181.898 54.088 179.27 56.1657C178.038 57.1398 176.808 58.1121 176.01 59.0967C175.559 59.6539 174.949 60.1023 174.347 60.5452C173.354 61.2758 172.381 61.9913 172.173 63.1558C171.76 65.4786 172.3 67.9647 172.829 70.4047C173.193 72.0826 173.552 73.7388 173.594 75.3051Z" fill="url(#paint7_linear_10_1406)"/>
<path d="M190.447 66.143L183.35 66.4898L180.252 66.2682C179.727 66.2306 179.253 66.5882 179.105 67.0936C178.777 68.2094 178.042 70.2195 176.582 72.2313C175.584 70.9577 174.909 69.6114 175.057 68.0998C175.499 63.5824 180.151 58.1965 184.653 58.8468C187.469 59.2535 188.663 62.0237 189.9 64.8928C190.08 65.3098 190.26 65.7288 190.447 66.143Z" fill="url(#paint8_linear_10_1406)"/>
<path d="M195.621 35.1612C198.882 37.4321 198.864 39.4322 198.853 40.6915C198.852 40.7624 198.852 40.831 198.852 40.8971C198.852 41.5292 199.074 41.939 199.322 42.1998C199.65 42.5433 200 42.9557 200 43.4309V47.7985C200 47.7985 200 60.4511 199.426 60.4511C199.233 60.4511 199.072 60.5485 198.944 60.6779C198.631 60.9943 198.805 61.4941 199.161 61.7615L199.471 61.9949C199.629 62.1135 199.754 62.2751 199.775 62.4716C199.84 63.102 199.614 64.541 196.268 64.7645H195.708C195.383 64.7645 195.12 65.0282 195.12 65.3536C195.12 65.6678 194.874 65.9267 194.56 65.942L191.667 66.0834C188.814 63.3795 187.768 59.0201 187.001 55.0735C186.703 53.538 187.286 52.0333 187.866 50.5338C188.473 48.9689 189.076 47.4098 188.674 45.8277C188.257 44.1906 186.604 42.8227 185.036 41.5261C183.006 39.8466 181.12 38.2867 182.254 36.4161C183.389 34.5425 185.752 35.274 188.242 36.0445C190.447 36.7273 192.752 37.4407 194.389 36.3989C194.905 36.0709 195.304 35.6491 195.621 35.1612Z" fill="url(#paint9_linear_10_1406)"/>
<path d="M176.577 28.5345C178.789 29.1415 180.983 29.7582 183.036 30.3581C182.746 30.5743 182.431 30.791 182.11 31.0115C180.969 31.7972 179.759 32.6301 179.331 33.6596C179.002 34.4495 179.257 35.2939 179.513 36.1441C179.752 36.9386 179.993 37.7382 179.761 38.5032C179.155 40.5057 177.877 42.2032 176.32 43.6029C175.86 44.016 175.402 44.4637 174.94 44.9161C173.022 46.7914 171.021 48.7484 168.459 48.6609C165.44 48.5576 163.247 45.723 161.379 43.3089L161.206 43.0863C161.087 42.9321 160.965 42.7755 160.84 42.6167L160.839 42.6155C159.06 40.3383 156.921 37.6021 157.845 34.9642C158.397 33.3888 160.148 32.804 161.902 32.2181C163.642 31.6367 165.386 31.0543 165.964 29.5017C166.402 28.3238 165.977 26.943 165.33 25.5499C168.335 26.3249 171.835 27.2428 175.345 28.1976C175.51 28.3155 175.696 28.4046 175.911 28.4558C176.126 28.5073 176.349 28.5318 176.577 28.5345Z" fill="url(#paint10_linear_10_1406)"/>
<path d="M143.793 19.6664C146.519 21.1031 148.379 22.0833 148.614 22.2058C148.742 22.2728 148.896 22.3645 149.074 22.471C150.331 23.221 152.816 24.7043 156.345 23.4693C156.545 23.3992 156.751 23.3805 156.957 23.4314C157.52 23.5706 158.829 23.8957 160.638 24.3525C160.246 27.9885 158.521 31.6244 155.655 33.6858C152.068 36.266 145.364 38.4737 142.785 34.8588C140.747 32.0015 141.704 28.4755 142.689 24.8448C143.156 23.1222 143.63 21.376 143.793 19.6664Z" fill="url(#paint11_linear_10_1406)"/>
<path d="M115.757 4.84914C115.76 4.85179 115.764 4.85439 115.768 4.85693C115.778 4.86481 115.789 4.87256 115.8 4.88018C115.87 4.93114 115.933 4.97657 116.013 5.01872C117.136 5.61069 125.562 10.054 133.568 14.2757C133.797 15.1665 133.903 16.0793 133.825 17.0212C133.797 17.3583 133.769 17.7191 133.74 18.0982L133.74 18.0989C133.359 23.0406 132.741 31.075 128.517 29.9131C125.213 29.004 124.416 25.3433 123.594 21.5611C122.876 18.265 122.139 14.8766 119.704 13.1366C118.177 12.0451 116.493 13.2977 114.732 14.608C113.178 15.7643 111.564 16.9656 109.943 16.6403C106.127 15.8746 99.3171 12.9013 101.053 9.39402C102.26 6.95684 105.529 6.85943 108.75 6.76345C111.624 6.67781 114.459 6.59333 115.757 4.84914Z" fill="url(#paint12_linear_10_1406)"/>
<path d="M74.3416 0.126035C80.7273 -0.0785647 86.7745 -0.0546728 91.7729 0.35128C98.2933 0.880852 103.083 1.51878 106.59 2.14867C103.979 4.767 99.5924 4.92877 95.5609 5.07745C94.842 5.10396 94.1345 5.13006 93.4503 5.16959C91.9356 5.2571 90.594 4.55391 89.2435 3.84598C88.0247 3.20716 86.7986 2.56448 85.4312 2.49545C84.2442 2.43554 83.1133 2.99501 82.0009 3.54533C80.6542 4.21156 79.3346 4.86436 77.9756 4.38845C76.3694 3.82597 75.5415 2.31288 74.6952 0.766073C74.5784 0.552566 74.4613 0.338416 74.3416 0.126035Z" fill="url(#paint13_linear_10_1406)"/>
<path d="M67.7899 0.405265C68.9711 0.343555 70.1491 0.287623 71.3197 0.238369C71.5285 1.05727 71.5954 2.07887 71.6644 3.13266C71.7735 4.80057 71.8879 6.54912 72.5788 7.70224C72.9138 8.26131 73.6312 8.43097 74.3352 8.59747C75.1036 8.7792 75.8561 8.95717 76.0781 9.63358C76.2931 10.2888 75.7532 10.9171 75.223 11.5341C74.6706 12.177 74.1287 12.8075 74.4627 13.4433C75.5168 15.4499 77.5596 17.0092 79.5492 18.5278C82.4144 20.7149 85.1694 22.8178 84.7025 26.0515C84.3935 28.1922 82.1162 27.1701 79.4962 25.9942C77.1733 24.9517 74.581 23.7882 72.852 24.6007C70.6811 25.6208 69.3635 28.5006 68.1279 31.2011C66.5916 34.5589 65.182 37.6396 62.4168 36.524C59.4562 35.3296 60.1722 31.8309 60.94 28.0786C61.5329 25.1812 62.1567 22.1327 61.1429 19.877C60.4631 18.3644 58.7185 17.9083 56.9663 17.4502C55.2505 17.0015 53.5273 16.551 52.7896 15.1047C51.3101 12.2044 50.9865 7.1111 53.8528 5.58543C55.7782 4.56055 57.9385 5.62664 60.1104 6.6985C62.2344 7.74667 64.3695 8.80035 66.307 7.90954C67.8057 7.22053 67.767 4.96882 67.7304 2.83485C67.7155 1.96802 67.7009 1.12061 67.7899 0.405265Z" fill="url(#paint14_linear_10_1406)"/>
<path d="M45.769 2.06613C50.7279 1.60107 56.2157 1.13497 61.7899 0.76349C59.1778 3.87831 53.1961 4.71268 49.1383 3.78315C47.8499 3.48801 46.7473 2.87887 45.769 2.06613Z" fill="url(#paint15_linear_10_1406)"/>
<path d="M39.2437 2.70412C38.9457 3.28481 38.5844 3.89331 38.2172 4.51166C36.913 6.7083 35.535 9.02914 36.6576 10.6684C38.1451 12.8405 41.231 13.2063 44.2285 13.5617C47.5453 13.9549 50.7541 14.3353 51.5695 17.136C52.2796 19.5746 49.4401 20.2484 46.3264 20.9873C44.066 21.5238 41.661 22.0945 40.3645 23.3997C39.1965 24.5755 38.7741 26.7939 38.3794 28.8671C37.853 31.6315 37.3759 34.1376 35.2457 33.5692C32.1872 32.7531 31.2579 29.5098 30.2954 26.1505C29.6625 23.9418 29.0153 21.683 27.7391 20.0309C27.0565 19.1471 25.8369 19.0397 24.6744 18.9372C24.4044 18.9134 24.1373 18.8899 23.8808 18.8569C21.774 18.5864 19.498 18.8373 17.2463 19.0855C14.6007 19.3771 11.9886 19.665 9.72351 19.0992C12.8483 16.2141 19.9561 9.67397 22.0176 7.77735C22.3572 7.46487 22.4327 6.96277 22.3865 6.50314C22.2989 5.62999 22.6758 4.28173 25.7457 4.08954C25.8096 4.08554 25.8804 4.08059 25.958 4.07473C26.949 5.21193 28.0702 6.0658 29.5156 6.20902C31.1128 6.36728 32.3995 4.94585 33.5835 3.29234C35.275 3.11316 37.1773 2.91372 39.2437 2.70412Z" fill="url(#paint16_linear_10_1406)"/>
<path d="M55.1328 56.0544C52.7257 55.629 50.8552 53.9721 48.9925 52.322C48.5328 51.9148 48.0736 51.508 47.6069 51.1202C46.976 50.596 46.5433 49.9017 46.1122 49.2097C45.6385 48.4495 45.1666 47.6921 44.4356 47.1664C43.6445 46.5976 42.698 46.3494 41.7573 46.1027C40.6761 45.8192 39.6026 45.5377 38.7819 44.7738C38.3378 44.3605 37.7903 43.9035 37.21 43.4192L37.2095 43.4188C34.728 41.3478 31.6468 38.7763 33.4884 36.9773C34.9734 35.5268 37.3243 36.5375 39.6526 37.5386C42.0157 38.5545 44.3555 39.5605 45.7436 37.9736C47.5099 35.9542 46.8148 32.981 46.1212 30.0139C45.4222 27.0243 44.7248 24.0409 46.5486 22.0462C49.0279 19.3346 54.9322 22.7968 56.5852 26.1163C57.4927 27.9386 56.4108 30.1699 55.3665 32.3239C54.2221 34.6841 53.1227 36.9514 54.7352 38.4858C57.0979 40.734 60.6989 40.5289 64.2588 40.326C68.0223 40.1116 71.7399 39.8998 73.8998 42.5923C76.804 46.2127 71.4567 51.9963 67.7222 54.6751C64.2205 57.187 59.3856 56.806 55.1328 56.0544Z" fill="url(#paint17_linear_10_1406)"/>
<path d="M97.839 11.239C99.0696 12.2618 99.2727 14.1531 99.4691 15.9821C99.6949 18.0846 99.9118 20.1049 101.671 20.6289C104.31 21.4152 107.031 20.0951 109.719 18.7913C112.618 17.3855 115.477 15.9985 118.153 17.2911C122.124 19.2094 121.642 25.5986 121.057 29.9942C120.498 34.1989 117.876 37.6539 115.312 41.0339L115.309 41.0368C115.181 41.2054 115.054 41.3738 114.926 41.5421C114.233 42.4578 113.565 43.5395 112.884 44.6426C110.767 48.0707 108.523 51.7054 105.004 51.2059C102.064 50.7885 100.681 47.9061 99.2642 44.9536C98.0143 42.3489 96.7382 39.6896 94.3436 38.6199C92.4632 37.78 90.0653 39.0233 87.8077 40.1939C85.2548 41.5176 82.8813 42.7484 81.6381 40.7686C80.1844 38.4533 82.1518 36.1911 84.2374 33.793C85.7997 31.9966 87.4283 30.1239 87.7352 28.0956C87.9617 26.5982 87.1161 25.3083 86.2557 23.9958C85.5486 22.9172 84.8316 21.8233 84.6914 20.5866C84.5702 19.5179 84.3378 18.3558 84.1004 17.1684C83.3211 13.2715 82.4874 9.10195 85.3511 7.06594C89.008 4.46599 94.3865 8.36972 97.839 11.239Z" fill="url(#paint18_linear_10_1406)"/>
<defs>
<linearGradient id="paint0_linear_10_1406" x1="3.61757" y1="52.5464" x2="195.607" y2="54.3521" gradientUnits="userSpaceOnUse">
<stop stop-color="#EC7363"/>
<stop offset="1" stop-color="#EA6290"/>
</linearGradient>
<linearGradient id="paint1_linear_10_1406" x1="3.61757" y1="52.5464" x2="195.607" y2="54.3521" gradientUnits="userSpaceOnUse">
<stop stop-color="#EC7363"/>
<stop offset="1" stop-color="#EA6290"/>
</linearGradient>
<linearGradient id="paint2_linear_10_1406" x1="3.61757" y1="52.5464" x2="195.607" y2="54.3521" gradientUnits="userSpaceOnUse">
<stop stop-color="#EC7363"/>
<stop offset="1" stop-color="#EA6290"/>
</linearGradient>
<linearGradient id="paint3_linear_10_1406" x1="3.61757" y1="52.5464" x2="195.607" y2="54.3521" gradientUnits="userSpaceOnUse">
<stop stop-color="#EC7363"/>
<stop offset="1" stop-color="#EA6290"/>
</linearGradient>
<linearGradient id="paint4_linear_10_1406" x1="3.61757" y1="52.5464" x2="195.607" y2="54.3521" gradientUnits="userSpaceOnUse">
<stop stop-color="#EC7363"/>
<stop offset="1" stop-color="#EA6290"/>
</linearGradient>
<linearGradient id="paint5_linear_10_1406" x1="3.61757" y1="52.5464" x2="195.607" y2="54.3521" gradientUnits="userSpaceOnUse">
<stop stop-color="#EC7363"/>
<stop offset="1" stop-color="#EA6290"/>
</linearGradient>
<linearGradient id="paint6_linear_10_1406" x1="3.61757" y1="52.5464" x2="195.607" y2="54.3521" gradientUnits="userSpaceOnUse">
<stop stop-color="#EC7363"/>
<stop offset="1" stop-color="#EA6290"/>
</linearGradient>
<linearGradient id="paint7_linear_10_1406" x1="3.61757" y1="52.5464" x2="195.607" y2="54.3521" gradientUnits="userSpaceOnUse">
<stop stop-color="#EC7363"/>
<stop offset="1" stop-color="#EA6290"/>
</linearGradient>
<linearGradient id="paint8_linear_10_1406" x1="3.61757" y1="52.5464" x2="195.607" y2="54.3521" gradientUnits="userSpaceOnUse">
<stop stop-color="#EC7363"/>
<stop offset="1" stop-color="#EA6290"/>
</linearGradient>
<linearGradient id="paint9_linear_10_1406" x1="3.61757" y1="52.5464" x2="195.607" y2="54.3521" gradientUnits="userSpaceOnUse">
<stop stop-color="#EC7363"/>
<stop offset="1" stop-color="#EA6290"/>
</linearGradient>
<linearGradient id="paint10_linear_10_1406" x1="3.61757" y1="52.5464" x2="195.607" y2="54.3521" gradientUnits="userSpaceOnUse">
<stop stop-color="#EC7363"/>
<stop offset="1" stop-color="#EA6290"/>
</linearGradient>
<linearGradient id="paint11_linear_10_1406" x1="3.61757" y1="52.5464" x2="195.607" y2="54.3521" gradientUnits="userSpaceOnUse">
<stop stop-color="#EC7363"/>
<stop offset="1" stop-color="#EA6290"/>
</linearGradient>
<linearGradient id="paint12_linear_10_1406" x1="3.61757" y1="52.5464" x2="195.607" y2="54.3521" gradientUnits="userSpaceOnUse">
<stop stop-color="#EC7363"/>
<stop offset="1" stop-color="#EA6290"/>
</linearGradient>
<linearGradient id="paint13_linear_10_1406" x1="3.61757" y1="52.5464" x2="195.607" y2="54.3521" gradientUnits="userSpaceOnUse">
<stop stop-color="#EC7363"/>
<stop offset="1" stop-color="#EA6290"/>
</linearGradient>
<linearGradient id="paint14_linear_10_1406" x1="3.61757" y1="52.5464" x2="195.607" y2="54.3521" gradientUnits="userSpaceOnUse">
<stop stop-color="#EC7363"/>
<stop offset="1" stop-color="#EA6290"/>
</linearGradient>
<linearGradient id="paint15_linear_10_1406" x1="3.61757" y1="52.5464" x2="195.607" y2="54.3521" gradientUnits="userSpaceOnUse">
<stop stop-color="#EC7363"/>
<stop offset="1" stop-color="#EA6290"/>
</linearGradient>
<linearGradient id="paint16_linear_10_1406" x1="3.61757" y1="52.5464" x2="195.607" y2="54.3521" gradientUnits="userSpaceOnUse">
<stop stop-color="#EC7363"/>
<stop offset="1" stop-color="#EA6290"/>
</linearGradient>
<linearGradient id="paint17_linear_10_1406" x1="3.61757" y1="52.5464" x2="195.607" y2="54.3521" gradientUnits="userSpaceOnUse">
<stop stop-color="#EC7363"/>
<stop offset="1" stop-color="#EA6290"/>
</linearGradient>
<linearGradient id="paint18_linear_10_1406" x1="3.61757" y1="52.5464" x2="195.607" y2="54.3521" gradientUnits="userSpaceOnUse">
<stop stop-color="#EC7363"/>
<stop offset="1" stop-color="#EA6290"/>
</linearGradient>
</defs>
</svg>
