<svg width="20" height="24" viewBox="0 0 20 24" fill="none" xmlns="http://www.w3.org/2000/svg">
<path d="M14.4012 0C14.4571 0 14.513 0 14.572 0C14.709 1.69253 14.0629 2.95719 13.2778 3.87301C12.5074 4.78251 11.4525 5.6646 9.74626 5.53076C9.63244 3.86247 10.2795 2.69161 11.0636 1.77789C11.7908 0.92636 13.1239 0.168621 14.4012 0Z" fill="black"/>
<path d="M19.5663 17.6167C19.5663 17.6335 19.5663 17.6483 19.5663 17.6641C19.0868 19.1163 18.4028 20.361 17.5682 21.516C16.8062 22.5646 15.8725 23.9758 14.2052 23.9758C12.7646 23.9758 11.8077 23.0494 10.3312 23.0241C8.76933 22.9988 7.91042 23.7987 6.48241 24C6.31906 24 6.15571 24 5.99552 24C4.94691 23.8482 4.10065 23.0178 3.48413 22.2695C1.66618 20.0585 0.261362 17.2025 0 13.5476C0 13.1893 0 12.832 0 12.4737C0.110657 9.858 1.38164 7.73127 3.07101 6.70057C3.96259 6.15256 5.18825 5.68569 6.55302 5.89436C7.13793 5.98499 7.73548 6.18523 8.25925 6.38336C8.75563 6.57411 9.37637 6.9124 9.96443 6.89449C10.3628 6.88289 10.7591 6.67528 11.1606 6.52879C12.3367 6.10408 13.4897 5.61718 15.0094 5.84588C16.8357 6.12199 18.132 6.93348 18.9329 8.18549C17.388 9.16876 16.1665 10.6505 16.3752 13.1809C16.5607 15.4794 17.897 16.8241 19.5663 17.6167Z" fill="black"/>
</svg>
