<svg width="199" height="56" viewBox="0 0 199 56" fill="none" xmlns="http://www.w3.org/2000/svg">
<path d="M1.551 44C1.14433 44 0.798667 43.8577 0.514 43.573C0.229333 43.2883 0.0870001 42.9427 0.0870001 42.536V2.154C0.0870001 1.74733 0.229333 1.40166 0.514 1.117C0.798667 0.832332 1.14433 0.689998 1.551 0.689998H6.614C7.02067 0.689998 7.36633 0.832332 7.651 1.117C7.93567 1.40166 8.078 1.74733 8.078 2.154V42.536C8.078 42.9427 7.93567 43.2883 7.651 43.573C7.36633 43.8577 7.02067 44 6.614 44H1.551ZM29.8336 44.61C25.3196 44.61 21.7409 43.3087 19.0976 40.706C16.4542 38.1033 15.0309 34.4027 14.8276 29.604C14.7869 29.1973 14.7666 28.689 14.7666 28.079C14.7666 27.4283 14.7869 26.92 14.8276 26.554C14.9902 23.504 15.6816 20.8607 16.9016 18.624C18.1622 16.3873 19.8906 14.6793 22.0866 13.5C24.2826 12.28 26.8649 11.67 29.8336 11.67C33.1276 11.67 35.8929 12.3613 38.1296 13.744C40.3662 15.086 42.0539 16.977 43.1926 19.417C44.3312 21.8163 44.9006 24.602 44.9006 27.774V29.055C44.9006 29.4617 44.7582 29.8073 44.4736 30.092C44.1889 30.3767 43.8229 30.519 43.3756 30.519H23.1236C23.1236 30.519 23.1236 30.58 23.1236 30.702C23.1236 30.824 23.1236 30.9257 23.1236 31.007C23.1642 32.4303 23.4286 33.752 23.9166 34.972C24.4452 36.1513 25.1976 37.107 26.1736 37.839C27.1902 38.571 28.3899 38.937 29.7726 38.937C30.9112 38.937 31.8669 38.7743 32.6396 38.449C33.4122 38.083 34.0426 37.6763 34.5306 37.229C35.0186 36.7817 35.3642 36.4157 35.5676 36.131C35.9336 35.643 36.2182 35.3583 36.4216 35.277C36.6656 35.155 37.0112 35.094 37.4586 35.094H42.7046C43.1112 35.094 43.4366 35.216 43.6806 35.46C43.9652 35.704 44.0872 36.009 44.0466 36.375C44.0059 37.0257 43.6602 37.8187 43.0096 38.754C42.3996 39.6893 41.5049 40.6043 40.3256 41.499C39.1462 42.3937 37.6619 43.146 35.8726 43.756C34.1239 44.3253 32.1109 44.61 29.8336 44.61ZM23.1236 25.395H36.6046V25.212C36.6046 23.626 36.3402 22.2433 35.8116 21.064C35.2829 19.8847 34.5102 18.9493 33.4936 18.258C32.4769 17.5667 31.2569 17.221 29.8336 17.221C28.4102 17.221 27.1902 17.5667 26.1736 18.258C25.1569 18.9493 24.3842 19.8847 23.8556 21.064C23.3676 22.2433 23.1236 23.626 23.1236 25.212V25.395ZM65.0396 44.61C60.5256 44.61 56.9469 43.3087 54.3036 40.706C51.6603 38.1033 50.2369 34.4027 50.0336 29.604C49.9929 29.1973 49.9726 28.689 49.9726 28.079C49.9726 27.4283 49.9929 26.92 50.0336 26.554C50.1963 23.504 50.8876 20.8607 52.1076 18.624C53.3683 16.3873 55.0966 14.6793 57.2926 13.5C59.4886 12.28 62.0709 11.67 65.0396 11.67C68.3336 11.67 71.0989 12.3613 73.3356 13.744C75.5723 15.086 77.2599 16.977 78.3986 19.417C79.5373 21.8163 80.1066 24.602 80.1066 27.774V29.055C80.1066 29.4617 79.9643 29.8073 79.6796 30.092C79.3949 30.3767 79.0289 30.519 78.5816 30.519H58.3296C58.3296 30.519 58.3296 30.58 58.3296 30.702C58.3296 30.824 58.3296 30.9257 58.3296 31.007C58.3703 32.4303 58.6346 33.752 59.1226 34.972C59.6513 36.1513 60.4036 37.107 61.3796 37.839C62.3963 38.571 63.5959 38.937 64.9786 38.937C66.1173 38.937 67.0729 38.7743 67.8456 38.449C68.6183 38.083 69.2486 37.6763 69.7366 37.229C70.2246 36.7817 70.5703 36.4157 70.7736 36.131C71.1396 35.643 71.4243 35.3583 71.6276 35.277C71.8716 35.155 72.2173 35.094 72.6646 35.094H77.9106C78.3173 35.094 78.6426 35.216 78.8866 35.46C79.1713 35.704 79.2933 36.009 79.2526 36.375C79.2119 37.0257 78.8663 37.8187 78.2156 38.754C77.6056 39.6893 76.7109 40.6043 75.5316 41.499C74.3523 42.3937 72.8679 43.146 71.0786 43.756C69.3299 44.3253 67.3169 44.61 65.0396 44.61ZM58.3296 25.395H71.8106V25.212C71.8106 23.626 71.5463 22.2433 71.0176 21.064C70.4889 19.8847 69.7163 18.9493 68.6996 18.258C67.6829 17.5667 66.4629 17.221 65.0396 17.221C63.6163 17.221 62.3963 17.5667 61.3796 18.258C60.3629 18.9493 59.5903 19.8847 59.0616 21.064C58.5736 22.2433 58.3296 23.626 58.3296 25.212V25.395ZM94.3501 44C93.7808 44 93.3538 43.8577 93.0691 43.573C92.7844 43.2883 92.5404 42.9223 92.3371 42.475L83.6141 14.171C83.5734 13.9677 83.5531 13.7847 83.5531 13.622C83.5531 13.256 83.6751 12.951 83.9191 12.707C84.2038 12.4223 84.5088 12.28 84.8341 12.28H89.3481C89.8361 12.28 90.2224 12.4223 90.5071 12.707C90.7918 12.951 90.9544 13.195 90.9951 13.439L96.9731 33.63L103.317 13.622C103.398 13.3373 103.581 13.0527 103.866 12.768C104.151 12.4427 104.578 12.28 105.147 12.28H108.197C108.766 12.28 109.193 12.4427 109.478 12.768C109.763 13.0527 109.946 13.3373 110.027 13.622L116.371 33.63L122.349 13.439C122.39 13.195 122.532 12.951 122.776 12.707C123.061 12.4223 123.447 12.28 123.935 12.28H128.449C128.815 12.28 129.12 12.4223 129.364 12.707C129.649 12.951 129.791 13.256 129.791 13.622C129.791 13.7847 129.75 13.9677 129.669 14.171L120.946 42.475C120.824 42.9223 120.6 43.2883 120.275 43.573C119.99 43.8577 119.563 44 118.994 44H115.029C114.46 44 114.012 43.8577 113.687 43.573C113.362 43.2883 113.138 42.9223 113.016 42.475L106.672 23.199L100.328 42.475C100.165 42.9223 99.9214 43.2883 99.5961 43.573C99.3114 43.8577 98.8641 44 98.2541 44H94.3501ZM143.985 44.61C141.87 44.61 139.959 44.2033 138.251 43.39C136.543 42.536 135.181 41.4177 134.164 40.035C133.188 38.6117 132.7 37.0257 132.7 35.277C132.7 32.4303 133.839 30.1733 136.116 28.506C138.434 26.798 141.484 25.6593 145.266 25.09L153.623 23.87V22.589C153.623 20.881 153.196 19.5593 152.342 18.624C151.488 17.6887 150.024 17.221 147.95 17.221C146.486 17.221 145.286 17.526 144.351 18.136C143.456 18.7053 142.785 19.478 142.338 20.454C142.013 20.9827 141.545 21.247 140.935 21.247H136.116C135.669 21.247 135.323 21.125 135.079 20.881C134.876 20.637 134.774 20.3117 134.774 19.905C134.815 19.2543 135.079 18.4613 135.567 17.526C136.055 16.5907 136.828 15.696 137.885 14.842C138.942 13.9473 140.305 13.195 141.972 12.585C143.639 11.975 145.652 11.67 148.011 11.67C150.573 11.67 152.728 11.9953 154.477 12.646C156.266 13.256 157.69 14.0897 158.747 15.147C159.804 16.2043 160.577 17.4447 161.065 18.868C161.553 20.2913 161.797 21.796 161.797 23.382V42.536C161.797 42.9427 161.655 43.2883 161.37 43.573C161.085 43.8577 160.74 44 160.333 44H155.392C154.945 44 154.579 43.8577 154.294 43.573C154.05 43.2883 153.928 42.9427 153.928 42.536V40.157C153.399 40.9297 152.688 41.6617 151.793 42.353C150.898 43.0037 149.8 43.5527 148.499 44C147.238 44.4067 145.734 44.61 143.985 44.61ZM146.059 38.815C147.482 38.815 148.763 38.51 149.902 37.9C151.081 37.29 151.996 36.3547 152.647 35.094C153.338 33.7927 153.684 32.166 153.684 30.214V28.933L147.584 29.909C145.185 30.275 143.395 30.8647 142.216 31.678C141.037 32.4913 140.447 33.4877 140.447 34.667C140.447 35.5617 140.711 36.3343 141.24 36.985C141.809 37.595 142.521 38.0627 143.375 38.388C144.229 38.6727 145.124 38.815 146.059 38.815ZM174.523 55.59C174.197 55.59 173.913 55.468 173.669 55.224C173.425 54.98 173.303 54.6953 173.303 54.37C173.303 54.2073 173.303 54.0447 173.303 53.882C173.343 53.76 173.425 53.5973 173.547 53.394L178.305 42.109L166.593 14.476C166.43 14.0693 166.349 13.7847 166.349 13.622C166.389 13.256 166.532 12.951 166.776 12.707C167.02 12.4223 167.325 12.28 167.691 12.28H172.632C173.12 12.28 173.486 12.402 173.73 12.646C173.974 12.89 174.157 13.1543 174.279 13.439L182.392 33.386L190.749 13.439C190.871 13.1137 191.054 12.8493 191.298 12.646C191.542 12.402 191.908 12.28 192.396 12.28H197.276C197.601 12.28 197.886 12.402 198.13 12.646C198.414 12.89 198.557 13.1747 198.557 13.5C198.557 13.744 198.475 14.0693 198.313 14.476L181.05 54.431C180.887 54.7563 180.684 55.0207 180.44 55.224C180.196 55.468 179.83 55.59 179.342 55.59H174.523Z" fill="url(#paint0_linear_10_1407)"/>
<defs>
<linearGradient id="paint0_linear_10_1407" x1="-0.310078" y1="34.7647" x2="195.515" y2="36.8313" gradientUnits="userSpaceOnUse">
<stop stop-color="#EA6290"/>
<stop offset="1" stop-color="#EC7363"/>
</linearGradient>
</defs>
</svg>
